<svg xmlns="http://www.w3.org/2000/svg" viewBox="0 0 24 24" fill="none" stroke="#10b981" stroke-width="2" stroke-linecap="round" stroke-linejoin="round">
  <circle cx="12" cy="4" r="2" />
  <path d="M7 9a2 2 0 0 0-2-2H4a2 2 0 0 0-2 2v2a2 2 0 0 0 2 2h1" />
  <path d="M17 9a2 2 0 0 1 2-2h1a2 2 0 0 1 2 2v2a2 2 0 0 1-2 2h-1" />
  <path d="M7 9c0-2 2-3 5-3s5 1 5 3" />
  <path d="M7 9v3l1.5 9a3.5 3.5 0 0 0 7 0L17 12V9" />
  <path d="M7 12c1.5 0 2.5-1 5-1s3.5 1 5 1" />
  <path d="M12 11v10" />
  <path d="M9 15h6" />
  <path d="M9.5 18h5" />
</svg>
